<?xml version="1.0" encoding="UTF-8"?>
<!DOCTYPE svg PUBLIC "-//W3C//DTD SVG 1.1//EN" "http://www.w3.org/Graphics/SVG/1.1/DTD/svg11.dtd">
<!-- Creator: CorelDRAW -->
<svg xmlns="http://www.w3.org/2000/svg" xml:space="preserve" width="30mm" height="8mm" version="1.1" style="shape-rendering:geometricPrecision; text-rendering:geometricPrecision; image-rendering:optimizeQuality; fill-rule:evenodd; clip-rule:evenodd"
viewBox="0 0 3000 800"
 xmlns:xlink="http://www.w3.org/1999/xlink"
 xmlns:xodm="http://www.corel.com/coreldraw/odm/2003">
 <defs>
  <style type="text/css">
   <![CDATA[
    .fil1 {fill:black;fill-rule:nonzero}
    .fil0 {fill:#3155E7;fill-rule:nonzero}
   ]]>
  </style>
 </defs>
 <g id="Layer_x0020_1">
  <metadata id="CorelCorpID_0Corel-Layer"/>
  <g id="_2523096705888">
   <g>
    <path class="fil0" d="M154.36 739.17l-34.68 -60.07 -34.68 -60.06 69.36 -120.13 106.82 0 -53.41 -92.51 3.98 -6.9 65.37 -113.23 106.83 0 -53.41 -92.51 69.35 -120.13 138.64 0 69.35 120.13 -3.98 6.9 -49.43 85.61 106.82 0 69.36 120.13 -53.41 92.51 106.82 0 69.36 120.13 -69.36 120.13c-209.9,0 -419.8,0 -629.7,0zm-37.55 -120.13l53.41 92.51 106.9 0 53.42 -92.51 -53.42 -92.51 -106.9 0 -53.41 92.51zm459.26 0l-53.41 -92.51 -106.9 0 -53.41 92.51 53.41 92.51 106.9 0 53.41 -92.51zm-309.79 -258.9l-26.7 46.26 53.41 92.51 106.9 0 53.41 -92.51 -53.41 -92.51 -106.9 0 -26.71 46.25z"/>
    <path class="fil1" d="M720.53 158.71l0 -69.65 -21.58 0 0 -15.41 60.51 0 0 15.41 -21.24 0 0 69.65 -17.69 0zm47.73 0l0 -85.06 17.12 0 31.86 42.24 -7.99 0 30.94 -42.24 17.13 0 0 85.06 -17.7 0 0 -65.54 7.08 1.6 -32.77 42.25 -2.29 0 -31.62 -42.25 5.93 -1.6 0 65.54 -17.69 0z"/>
   </g>
   <path class="fil1" d="M1011.82 594.43l0 -72.99 23.46 0c15.64,0 28.24,-4.43 37.8,-13.29 9.56,-8.86 14.34,-20.59 14.34,-35.19l0 -266.93 80.81 0 0 263.28c0,25.02 -5.39,46.92 -16.17,65.69 -10.77,18.77 -26.15,33.36 -46.13,43.79 -19.99,10.43 -43.54,15.64 -70.65,15.64l-23.46 0zm306.03 6.26c-20.51,0 -38.23,-3.31 -53.18,-9.91 -14.94,-6.6 -26.41,-16.07 -34.4,-28.41 -8,-12.34 -12,-27.03 -12,-44.06 0,-15.98 3.65,-30.15 10.95,-42.48 7.3,-12.34 18.51,-22.68 33.63,-31.02 15.12,-8.35 33.97,-14.25 56.56,-17.73l87.07 -14.08 0 57.35 -72.99 13.03c-11.12,2.09 -19.64,5.65 -25.55,10.69 -5.9,5.04 -8.86,12.25 -8.86,21.64 0,8.69 3.3,15.46 9.91,20.33 6.6,4.87 14.77,7.3 24.5,7.3 12.86,0 24.16,-2.78 33.89,-8.34 9.73,-5.56 17.29,-13.12 22.68,-22.68 5.38,-9.56 8.08,-20.07 8.08,-31.54l0 -74.03c0,-10.78 -4.26,-19.81 -12.78,-27.11 -8.51,-7.3 -20.07,-10.95 -34.67,-10.95 -13.9,0 -26.15,3.82 -36.75,11.47 -10.6,7.65 -18.33,17.72 -23.2,30.24l-62.56 -29.72c5.56,-15.99 14.42,-29.72 26.59,-41.19 12.16,-11.46 26.76,-20.33 43.79,-26.58 17.03,-6.26 35.63,-9.39 55.78,-9.39 23.99,0 45.19,4.35 63.61,13.04 18.42,8.68 32.75,20.76 43.01,36.23 10.25,15.47 15.38,33.45 15.38,53.96l0 187.68 -72.99 0 0 -45.88 17.73 -3.13c-8.35,12.52 -17.56,22.86 -27.64,31.02 -10.07,8.17 -21.37,14.25 -33.88,18.25 -12.51,4 -26.42,6 -41.71,6zm215.83 -6.26l0 -284.65 72.99 0 0 68.29 -5.21 -9.9c6.25,-23.98 16.59,-40.23 31.02,-48.75 14.42,-8.51 31.54,-12.77 51.35,-12.77l16.68 0 0 67.77 -24.5 0c-19.12,0 -34.58,5.83 -46.4,17.47 -11.82,11.64 -17.73,28.06 -17.73,49.27l0 153.27 -78.2 0zm290.39 0l-112.09 -284.65 84.46 0 77.68 215.31 -32.32 0 77.68 -215.31 84.46 0 -112.09 284.65 -67.78 0zm214.27 0l0 -284.65 78.2 0 0 284.65 -78.2 0zm0 -310.2l0 -78.2 78.2 0 0 78.2 -78.2 0zm247.12 316.46c-31.28,0 -58.48,-7.39 -81.59,-22.16 -23.11,-14.77 -38.84,-34.67 -47.18,-59.69l57.35 -27.11c7.3,15.29 17.2,27.28 29.71,35.97 12.52,8.69 26.42,13.03 41.71,13.03 11.12,0 19.64,-2.26 25.55,-6.78 5.9,-4.51 8.86,-10.77 8.86,-18.76 0,-4.17 -1.04,-7.74 -3.13,-10.69 -2.08,-2.96 -5.21,-5.65 -9.38,-8.08 -4.17,-2.43 -9.39,-4.52 -15.64,-6.26l-48.49 -13.55c-23.28,-6.61 -41.18,-17.29 -53.7,-32.07 -12.51,-14.77 -18.76,-32.23 -18.76,-52.39 0,-17.73 4.51,-33.19 13.55,-46.4 9.04,-13.21 21.72,-23.55 38.06,-31.02 16.33,-7.47 35.1,-11.21 56.3,-11.21 27.81,0 52.22,6.52 73.25,19.55 21.03,13.04 35.89,31.37 44.58,55l-57.87 27.11c-4.17,-11.81 -11.73,-21.28 -22.68,-28.41 -10.95,-7.12 -23.37,-10.69 -37.28,-10.69 -10.08,0 -17.98,2.09 -23.72,6.26 -5.73,4.17 -8.6,9.9 -8.6,17.2 0,3.83 1.04,7.3 3.13,10.43 2.08,3.13 5.47,5.91 10.16,8.34 4.7,2.43 10.52,4.69 17.47,6.78l45.36 13.55c23.63,6.96 41.7,17.47 54.21,31.54 12.52,14.08 18.77,31.37 18.77,51.88 0,17.72 -4.6,33.19 -13.81,46.4 -9.21,13.2 -21.99,23.54 -38.32,31.02 -16.34,7.47 -35.63,11.21 -57.87,11.21zm133.98 -6.26l131.38 -388.4 107.4 0 131.38 388.4 -88.11 0 -26.07 -79.24 -142.32 0 -26.07 79.24 -87.59 0zm136.07 -149.62l97.5 0 -59.44 -183.52 21.9 0 -59.96 183.52zm268.49 149.62l0 -284.65 78.2 0 0 284.65 -78.2 0zm0 -310.2l0 -78.2 78.2 0 0 78.2 -78.2 0z"/>
  </g>
 </g>
</svg>
